<mxfile host="app.diagrams.net" agent="Mozilla/5.0 (X11; Linux x86_64; rv:133.0) Gecko/20100101 Firefox/133.0" version="26.0.5">
  <diagram name="Page-1" id="xwc9D1xMEx63HCuodD_7">
    <mxGraphModel dx="819" dy="448" grid="1" gridSize="10" guides="1" tooltips="1" connect="1" arrows="1" fold="1" page="1" pageScale="1" pageWidth="850" pageHeight="1100" math="0" shadow="0">
      <root>
        <mxCell id="0" />
        <mxCell id="1" parent="0" />
        <mxCell id="eGUReGT0A570qVKPgOOu-118" style="edgeStyle=orthogonalEdgeStyle;rounded=0;orthogonalLoop=1;jettySize=auto;html=1;exitX=0.25;exitY=1;exitDx=0;exitDy=0;entryX=0.5;entryY=0;entryDx=0;entryDy=0;" edge="1" parent="1" source="eGUReGT0A570qVKPgOOu-29" target="eGUReGT0A570qVKPgOOu-113">
          <mxGeometry relative="1" as="geometry">
            <Array as="points">
              <mxPoint x="342" y="590" />
              <mxPoint x="355" y="590" />
            </Array>
          </mxGeometry>
        </mxCell>
        <mxCell id="eGUReGT0A570qVKPgOOu-119" style="edgeStyle=orthogonalEdgeStyle;rounded=0;orthogonalLoop=1;jettySize=auto;html=1;exitX=0.5;exitY=1;exitDx=0;exitDy=0;entryX=0.5;entryY=0;entryDx=0;entryDy=0;" edge="1" parent="1" source="eGUReGT0A570qVKPgOOu-29" target="eGUReGT0A570qVKPgOOu-31">
          <mxGeometry relative="1" as="geometry" />
        </mxCell>
        <mxCell id="eGUReGT0A570qVKPgOOu-120" style="edgeStyle=orthogonalEdgeStyle;rounded=0;orthogonalLoop=1;jettySize=auto;html=1;exitX=0.75;exitY=1;exitDx=0;exitDy=0;entryX=0.5;entryY=0;entryDx=0;entryDy=0;" edge="1" parent="1" source="eGUReGT0A570qVKPgOOu-29" target="eGUReGT0A570qVKPgOOu-38">
          <mxGeometry relative="1" as="geometry">
            <Array as="points">
              <mxPoint x="388" y="570" />
              <mxPoint x="560" y="570" />
            </Array>
          </mxGeometry>
        </mxCell>
        <mxCell id="eGUReGT0A570qVKPgOOu-29" value="(своя система) Бот" style="whiteSpace=wrap;html=1;fillColor=#d5e8d4;strokeColor=#82b366;strokeWidth=2;" vertex="1" parent="1">
          <mxGeometry x="320" y="520" width="90" height="40" as="geometry" />
        </mxCell>
        <mxCell id="eGUReGT0A570qVKPgOOu-30" value="Контекст (цель) звонка" style="whiteSpace=wrap;html=1;fillColor=#dae8fc;strokeColor=#6c8ebf;" vertex="1" parent="1">
          <mxGeometry x="520" y="520" width="100" height="40" as="geometry" />
        </mxCell>
        <mxCell id="eGUReGT0A570qVKPgOOu-31" value="Интеграция с CRM компании" style="whiteSpace=wrap;html=1;fillColor=#d5e8d4;strokeColor=#82b366;" vertex="1" parent="1">
          <mxGeometry x="400" y="600" width="90" height="40" as="geometry" />
        </mxCell>
        <mxCell id="eGUReGT0A570qVKPgOOu-33" value="Алгоритмы распознавания речи" style="whiteSpace=wrap;html=1;fillColor=#d5e8d4;strokeColor=#82b366;" vertex="1" parent="1">
          <mxGeometry x="320" y="680" width="120" height="40" as="geometry" />
        </mxCell>
        <mxCell id="eGUReGT0A570qVKPgOOu-34" value="Клиент (собесебник)" style="whiteSpace=wrap;html=1;fillColor=#dae8fc;strokeColor=#6c8ebf;" vertex="1" parent="1">
          <mxGeometry x="420" y="520" width="90" height="40" as="geometry" />
        </mxCell>
        <mxCell id="eGUReGT0A570qVKPgOOu-37" value="Инфраструктура CRM" style="whiteSpace=wrap;html=1;" vertex="1" parent="1">
          <mxGeometry x="460" y="840" width="100" height="40" as="geometry" />
        </mxCell>
        <mxCell id="eGUReGT0A570qVKPgOOu-38" value="Выделеный телефонный номер" style="whiteSpace=wrap;html=1;fillColor=#d5e8d4;strokeColor=#82b366;" vertex="1" parent="1">
          <mxGeometry x="500" y="600" width="120" height="40" as="geometry" />
        </mxCell>
        <mxCell id="eGUReGT0A570qVKPgOOu-40" value="Облако" style="whiteSpace=wrap;html=1;" vertex="1" parent="1">
          <mxGeometry x="570" y="840" width="50" height="40" as="geometry" />
        </mxCell>
        <mxCell id="eGUReGT0A570qVKPgOOu-121" style="edgeStyle=orthogonalEdgeStyle;rounded=0;orthogonalLoop=1;jettySize=auto;html=1;exitX=0.25;exitY=1;exitDx=0;exitDy=0;entryX=0.5;entryY=0;entryDx=0;entryDy=0;" edge="1" parent="1" source="eGUReGT0A570qVKPgOOu-55" target="eGUReGT0A570qVKPgOOu-29">
          <mxGeometry relative="1" as="geometry">
            <Array as="points">
              <mxPoint x="345" y="510" />
              <mxPoint x="365" y="510" />
            </Array>
          </mxGeometry>
        </mxCell>
        <mxCell id="eGUReGT0A570qVKPgOOu-122" style="edgeStyle=orthogonalEdgeStyle;rounded=0;orthogonalLoop=1;jettySize=auto;html=1;exitX=0.5;exitY=1;exitDx=0;exitDy=0;entryX=0.5;entryY=0;entryDx=0;entryDy=0;" edge="1" parent="1" source="eGUReGT0A570qVKPgOOu-55" target="eGUReGT0A570qVKPgOOu-34">
          <mxGeometry relative="1" as="geometry" />
        </mxCell>
        <mxCell id="eGUReGT0A570qVKPgOOu-123" style="edgeStyle=orthogonalEdgeStyle;rounded=0;orthogonalLoop=1;jettySize=auto;html=1;exitX=0.75;exitY=1;exitDx=0;exitDy=0;entryX=0.5;entryY=0;entryDx=0;entryDy=0;" edge="1" parent="1" source="eGUReGT0A570qVKPgOOu-55" target="eGUReGT0A570qVKPgOOu-30">
          <mxGeometry relative="1" as="geometry">
            <Array as="points">
              <mxPoint x="395" y="490" />
              <mxPoint x="570" y="490" />
            </Array>
          </mxGeometry>
        </mxCell>
        <mxCell id="eGUReGT0A570qVKPgOOu-55" value="(центральная система) Звонок" style="rounded=0;whiteSpace=wrap;html=1;fillColor=#dae8fc;strokeColor=#6c8ebf;strokeWidth=2;" vertex="1" parent="1">
          <mxGeometry x="320" y="440" width="100" height="40" as="geometry" />
        </mxCell>
        <mxCell id="eGUReGT0A570qVKPgOOu-127" style="edgeStyle=orthogonalEdgeStyle;rounded=0;orthogonalLoop=1;jettySize=auto;html=1;exitX=0.75;exitY=1;exitDx=0;exitDy=0;entryX=0.5;entryY=0;entryDx=0;entryDy=0;" edge="1" parent="1" source="eGUReGT0A570qVKPgOOu-64" target="eGUReGT0A570qVKPgOOu-40">
          <mxGeometry relative="1" as="geometry">
            <Array as="points">
              <mxPoint x="500" y="810" />
              <mxPoint x="595" y="810" />
            </Array>
          </mxGeometry>
        </mxCell>
        <mxCell id="eGUReGT0A570qVKPgOOu-128" style="edgeStyle=orthogonalEdgeStyle;rounded=0;orthogonalLoop=1;jettySize=auto;html=1;exitX=0.25;exitY=1;exitDx=0;exitDy=0;entryX=0.5;entryY=0;entryDx=0;entryDy=0;" edge="1" parent="1" source="eGUReGT0A570qVKPgOOu-64" target="eGUReGT0A570qVKPgOOu-81">
          <mxGeometry relative="1" as="geometry">
            <Array as="points">
              <mxPoint x="440" y="810" />
              <mxPoint x="345" y="810" />
            </Array>
          </mxGeometry>
        </mxCell>
        <mxCell id="eGUReGT0A570qVKPgOOu-130" style="edgeStyle=orthogonalEdgeStyle;rounded=0;orthogonalLoop=1;jettySize=auto;html=1;exitX=0.5;exitY=1;exitDx=0;exitDy=0;entryX=0.5;entryY=0;entryDx=0;entryDy=0;" edge="1" parent="1" source="eGUReGT0A570qVKPgOOu-64" target="eGUReGT0A570qVKPgOOu-37">
          <mxGeometry relative="1" as="geometry" />
        </mxCell>
        <mxCell id="eGUReGT0A570qVKPgOOu-131" style="edgeStyle=orthogonalEdgeStyle;rounded=0;orthogonalLoop=1;jettySize=auto;html=1;exitX=0.5;exitY=1;exitDx=0;exitDy=0;entryX=0.5;entryY=0;entryDx=0;entryDy=0;" edge="1" parent="1" source="eGUReGT0A570qVKPgOOu-64" target="eGUReGT0A570qVKPgOOu-77">
          <mxGeometry relative="1" as="geometry" />
        </mxCell>
        <mxCell id="eGUReGT0A570qVKPgOOu-64" value="Обеспечивающие системы" style="rounded=0;whiteSpace=wrap;html=1;" vertex="1" parent="1">
          <mxGeometry x="410" y="760" width="120" height="40" as="geometry" />
        </mxCell>
        <mxCell id="eGUReGT0A570qVKPgOOu-77" value="Телефония" style="whiteSpace=wrap;html=1;" vertex="1" parent="1">
          <mxGeometry x="380" y="840" width="70" height="40" as="geometry" />
        </mxCell>
        <mxCell id="eGUReGT0A570qVKPgOOu-81" value="OpenAI API" style="rounded=0;whiteSpace=wrap;html=1;" vertex="1" parent="1">
          <mxGeometry x="320" y="840" width="50" height="40" as="geometry" />
        </mxCell>
        <mxCell id="eGUReGT0A570qVKPgOOu-124" style="edgeStyle=orthogonalEdgeStyle;rounded=0;orthogonalLoop=1;jettySize=auto;html=1;exitX=0.25;exitY=1;exitDx=0;exitDy=0;entryX=0.5;entryY=0;entryDx=0;entryDy=0;" edge="1" parent="1" source="eGUReGT0A570qVKPgOOu-92" target="eGUReGT0A570qVKPgOOu-55">
          <mxGeometry relative="1" as="geometry">
            <Array as="points">
              <mxPoint x="345" y="430" />
              <mxPoint x="370" y="430" />
            </Array>
          </mxGeometry>
        </mxCell>
        <mxCell id="eGUReGT0A570qVKPgOOu-125" style="edgeStyle=orthogonalEdgeStyle;rounded=0;orthogonalLoop=1;jettySize=auto;html=1;exitX=0.5;exitY=1;exitDx=0;exitDy=0;entryX=0.5;entryY=0;entryDx=0;entryDy=0;" edge="1" parent="1" source="eGUReGT0A570qVKPgOOu-92" target="eGUReGT0A570qVKPgOOu-96">
          <mxGeometry relative="1" as="geometry">
            <Array as="points">
              <mxPoint x="370" y="420" />
              <mxPoint x="445" y="420" />
            </Array>
          </mxGeometry>
        </mxCell>
        <mxCell id="eGUReGT0A570qVKPgOOu-126" style="edgeStyle=orthogonalEdgeStyle;rounded=0;orthogonalLoop=1;jettySize=auto;html=1;exitX=0.75;exitY=1;exitDx=0;exitDy=0;entryX=0.5;entryY=0;entryDx=0;entryDy=0;" edge="1" parent="1" source="eGUReGT0A570qVKPgOOu-92" target="eGUReGT0A570qVKPgOOu-97">
          <mxGeometry relative="1" as="geometry">
            <Array as="points">
              <mxPoint x="395" y="410" />
              <mxPoint x="545" y="410" />
            </Array>
          </mxGeometry>
        </mxCell>
        <mxCell id="eGUReGT0A570qVKPgOOu-92" value="Служба работы с клиентами" style="rounded=0;whiteSpace=wrap;html=1;" vertex="1" parent="1">
          <mxGeometry x="320" y="360" width="100" height="40" as="geometry" />
        </mxCell>
        <mxCell id="eGUReGT0A570qVKPgOOu-93" style="edgeStyle=orthogonalEdgeStyle;rounded=0;orthogonalLoop=1;jettySize=auto;html=1;exitX=0.5;exitY=1;exitDx=0;exitDy=0;" edge="1" parent="1" source="eGUReGT0A570qVKPgOOu-92" target="eGUReGT0A570qVKPgOOu-92">
          <mxGeometry relative="1" as="geometry" />
        </mxCell>
        <mxCell id="eGUReGT0A570qVKPgOOu-96" value="CRM" style="rounded=0;whiteSpace=wrap;html=1;" vertex="1" parent="1">
          <mxGeometry x="430" y="440" width="30" height="40" as="geometry" />
        </mxCell>
        <mxCell id="eGUReGT0A570qVKPgOOu-97" value="Актуальная информация (базы данных и т.п.)" style="rounded=0;whiteSpace=wrap;html=1;" vertex="1" parent="1">
          <mxGeometry x="470" y="440" width="150" height="40" as="geometry" />
        </mxCell>
        <mxCell id="eGUReGT0A570qVKPgOOu-135" style="edgeStyle=orthogonalEdgeStyle;rounded=0;orthogonalLoop=1;jettySize=auto;html=1;exitX=0.25;exitY=0;exitDx=0;exitDy=0;entryX=0.5;entryY=0;entryDx=0;entryDy=0;" edge="1" parent="1" source="eGUReGT0A570qVKPgOOu-100" target="eGUReGT0A570qVKPgOOu-101">
          <mxGeometry relative="1" as="geometry">
            <Array as="points">
              <mxPoint x="560" y="350" />
              <mxPoint x="460" y="350" />
            </Array>
          </mxGeometry>
        </mxCell>
        <mxCell id="eGUReGT0A570qVKPgOOu-136" style="edgeStyle=orthogonalEdgeStyle;rounded=0;orthogonalLoop=1;jettySize=auto;html=1;exitX=0.75;exitY=0;exitDx=0;exitDy=0;entryX=0.5;entryY=0;entryDx=0;entryDy=0;" edge="1" parent="1" source="eGUReGT0A570qVKPgOOu-100" target="eGUReGT0A570qVKPgOOu-92">
          <mxGeometry relative="1" as="geometry" />
        </mxCell>
        <mxCell id="eGUReGT0A570qVKPgOOu-100" value="Компания" style="rounded=0;whiteSpace=wrap;html=1;" vertex="1" parent="1">
          <mxGeometry x="540" y="360" width="80" height="40" as="geometry" />
        </mxCell>
        <mxCell id="eGUReGT0A570qVKPgOOu-101" value="Продукт" style="rounded=0;whiteSpace=wrap;html=1;" vertex="1" parent="1">
          <mxGeometry x="430" y="360" width="60" height="40" as="geometry" />
        </mxCell>
        <mxCell id="eGUReGT0A570qVKPgOOu-132" style="edgeStyle=orthogonalEdgeStyle;rounded=0;orthogonalLoop=1;jettySize=auto;html=1;exitX=0.75;exitY=1;exitDx=0;exitDy=0;entryX=0.5;entryY=0;entryDx=0;entryDy=0;" edge="1" parent="1" source="eGUReGT0A570qVKPgOOu-107" target="eGUReGT0A570qVKPgOOu-108">
          <mxGeometry relative="1" as="geometry" />
        </mxCell>
        <mxCell id="eGUReGT0A570qVKPgOOu-133" style="edgeStyle=orthogonalEdgeStyle;rounded=0;orthogonalLoop=1;jettySize=auto;html=1;exitX=0.25;exitY=1;exitDx=0;exitDy=0;entryX=0.5;entryY=0;entryDx=0;entryDy=0;" edge="1" parent="1" source="eGUReGT0A570qVKPgOOu-107" target="eGUReGT0A570qVKPgOOu-111">
          <mxGeometry relative="1" as="geometry">
            <Array as="points">
              <mxPoint x="445" y="970" />
              <mxPoint x="355" y="970" />
            </Array>
          </mxGeometry>
        </mxCell>
        <mxCell id="eGUReGT0A570qVKPgOOu-134" style="edgeStyle=orthogonalEdgeStyle;rounded=0;orthogonalLoop=1;jettySize=auto;html=1;exitX=0.5;exitY=1;exitDx=0;exitDy=0;entryX=0.5;entryY=0;entryDx=0;entryDy=0;" edge="1" parent="1" source="eGUReGT0A570qVKPgOOu-107" target="eGUReGT0A570qVKPgOOu-110">
          <mxGeometry relative="1" as="geometry" />
        </mxCell>
        <mxCell id="eGUReGT0A570qVKPgOOu-107" value="Системы окружения" style="rounded=0;whiteSpace=wrap;html=1;" vertex="1" parent="1">
          <mxGeometry x="415" y="920" width="120" height="40" as="geometry" />
        </mxCell>
        <mxCell id="eGUReGT0A570qVKPgOOu-108" value="Актуальная информация (базы данных и т.п.)" style="whiteSpace=wrap;html=1;" vertex="1" parent="1">
          <mxGeometry x="470" y="1000" width="150" height="40" as="geometry" />
        </mxCell>
        <mxCell id="eGUReGT0A570qVKPgOOu-110" value="CRM" style="whiteSpace=wrap;html=1;" vertex="1" parent="1">
          <mxGeometry x="400" y="1000" width="60" height="40" as="geometry" />
        </mxCell>
        <mxCell id="eGUReGT0A570qVKPgOOu-111" value="Скрипт общения" style="rounded=0;whiteSpace=wrap;html=1;" vertex="1" parent="1">
          <mxGeometry x="320" y="1000" width="70" height="40" as="geometry" />
        </mxCell>
        <mxCell id="eGUReGT0A570qVKPgOOu-112" value="LLM" style="whiteSpace=wrap;html=1;fillColor=#d5e8d4;strokeColor=#82b366;" vertex="1" parent="1">
          <mxGeometry x="450" y="680" width="50" height="40" as="geometry" />
        </mxCell>
        <mxCell id="eGUReGT0A570qVKPgOOu-115" style="edgeStyle=orthogonalEdgeStyle;rounded=0;orthogonalLoop=1;jettySize=auto;html=1;exitX=0.25;exitY=1;exitDx=0;exitDy=0;entryX=0.5;entryY=0;entryDx=0;entryDy=0;" edge="1" parent="1" source="eGUReGT0A570qVKPgOOu-113" target="eGUReGT0A570qVKPgOOu-33">
          <mxGeometry relative="1" as="geometry">
            <Array as="points">
              <mxPoint x="338" y="670" />
              <mxPoint x="380" y="670" />
            </Array>
          </mxGeometry>
        </mxCell>
        <mxCell id="eGUReGT0A570qVKPgOOu-116" style="edgeStyle=orthogonalEdgeStyle;rounded=0;orthogonalLoop=1;jettySize=auto;html=1;exitX=0.5;exitY=1;exitDx=0;exitDy=0;entryX=0.5;entryY=0;entryDx=0;entryDy=0;" edge="1" parent="1" source="eGUReGT0A570qVKPgOOu-113" target="eGUReGT0A570qVKPgOOu-112">
          <mxGeometry relative="1" as="geometry" />
        </mxCell>
        <mxCell id="eGUReGT0A570qVKPgOOu-117" style="edgeStyle=orthogonalEdgeStyle;rounded=0;orthogonalLoop=1;jettySize=auto;html=1;exitX=0.75;exitY=1;exitDx=0;exitDy=0;entryX=0.5;entryY=0;entryDx=0;entryDy=0;" edge="1" parent="1" source="eGUReGT0A570qVKPgOOu-113" target="eGUReGT0A570qVKPgOOu-114">
          <mxGeometry relative="1" as="geometry">
            <Array as="points">
              <mxPoint x="372" y="650" />
              <mxPoint x="565" y="650" />
            </Array>
          </mxGeometry>
        </mxCell>
        <mxCell id="eGUReGT0A570qVKPgOOu-113" value="Голосовой бот" style="whiteSpace=wrap;html=1;fillColor=#d5e8d4;strokeColor=#82b366;" vertex="1" parent="1">
          <mxGeometry x="320" y="600" width="70" height="40" as="geometry" />
        </mxCell>
        <mxCell id="eGUReGT0A570qVKPgOOu-114" value="Алгоритмы генерации речи" style="whiteSpace=wrap;html=1;fillColor=#d5e8d4;strokeColor=#82b366;" vertex="1" parent="1">
          <mxGeometry x="510" y="680" width="110" height="40" as="geometry" />
        </mxCell>
      </root>
    </mxGraphModel>
  </diagram>
</mxfile>
